<svg xmlns="http://www.w3.org/2000/svg" width="24" height="24" viewBox="0 0 24 24"><g fill="none"><path fill="#b2b2b2" d="M22.043 22.998a.68.68 0 0 0 .688-.918l-2.812-9.641a1.355 1.355 0 0 0-1.224-.918H5.305a1.355 1.355 0 0 0-1.224.918l-2.812 9.639a.678.678 0 0 0 .688.918h3.826a.957.957 0 0 0 .957-.956v-.477a1.435 1.435 0 0 1 2.869 0v.478a.957.957 0 0 0 .956.957h2.87a.956.956 0 0 0 .956-.957v-.478a1.435 1.435 0 0 1 2.87 0v.478a.956.956 0 0 0 .956.957z"/><path fill="#e3e3e3" d="M3.947 14.802h16.106c.21.013.414.067.603.16l-.737-2.524a1.36 1.36 0 0 0-1.224-.917H5.305a1.355 1.355 0 0 0-1.224.918l-.737 2.525c.189-.093.393-.148.603-.162"/><path stroke="#191919" stroke-linecap="round" stroke-linejoin="round" d="M22.043 22.998a.68.68 0 0 0 .688-.918l-2.812-9.641a1.355 1.355 0 0 0-1.224-.918H5.305a1.355 1.355 0 0 0-1.224.918l-2.812 9.639a.678.678 0 0 0 .688.918h3.826a.957.957 0 0 0 .957-.956v-.477a1.435 1.435 0 0 1 2.869 0v.478a.957.957 0 0 0 .956.957h2.87a.956.956 0 0 0 .956-.957v-.478a1.435 1.435 0 0 1 2.87 0v.478a.956.956 0 0 0 .956.957z" stroke-width="1"/><path stroke="#191919" stroke-linecap="round" stroke-linejoin="round" d="M16.304 20.201L14.556 7.886a.96.96 0 0 1 .472-.965a3.08 3.08 0 0 0 1.755-2.574C16.783 2.496 14.643 1 12 1C9.36 1 7.219 2.496 7.219 4.347a3.08 3.08 0 0 0 1.755 2.575a.96.96 0 0 1 .472.964L7.697 20.201" stroke-width="1"/></g></svg>
